<?xml version="1.0"?>
<svg width="640" height="480" xmlns="http://www.w3.org/2000/svg" xmlns:svg="http://www.w3.org/2000/svg" xmlns:xlink="http://www.w3.org/1999/xlink">
 <!-- Created with SVG-edit - https://github.com/SVG-Edit/svgedit-->
 <defs>
  <symbol height="480" id="svg_9" width="640" xmlns="http://www.w3.org/2000/svg" xmlns:svg="http://www.w3.org/2000/svg" xmlns:xlink="http://www.w3.org/1999/xlink">
   <!-- Created with SVG-edit - https://github.com/SVG-Edit/svgedit-->
   <defs>
    <symbol id="svg_3" viewBox="0 0 512 512" xmlns="http://www.w3.org/2000/svg" xmlns:xlink="http://www.w3.org/1999/xlink">
     <style type="text/css">.st0{fill:#F47822;}</style>
     <g id="svg_4">
      <path class="st0" d="m365.6,285.9l-325.3,0l0,133.9l276.3,0l49,-133.9zm-184.7,80.5c0,6.5 -2,11.7 -6,15.6c-4,3.9 -9.1,5.8 -15.4,5.8c-6.7,0 -12,-1.7 -15.9,-5.1c-3.9,-3.4 -5.8,-8.4 -5.7,-15l0.1,-0.3l11,0c0,3.9 0.9,6.7 2.8,8.6c1.9,1.9 4.4,2.8 7.7,2.8c3,0 5.4,-1.1 7.3,-3.4c1.9,-2.2 2.8,-5.2 2.8,-9l0,-47.6l11.3,0l0,47.6zm57.7,16.4c-4.4,3.4 -10.2,5 -17.4,5c-6.9,0 -12.9,-1.8 -18.1,-5.5c-5.1,-3.7 -7.6,-8.9 -7.5,-15.6l0.1,-0.3l10.9,0c0,4.1 1.4,7.2 4.2,9.2c2.8,2.1 6.3,3.1 10.3,3.1c4,0 7.1,-0.8 9.4,-2.5c2.2,-1.7 3.3,-4 3.3,-6.9c0,-2.8 -1,-5.2 -3,-7c-2,-1.8 -5.6,-3.4 -10.7,-4.9c-7.3,-2 -13,-4.7 -16.9,-8c-4,-3.3 -6,-7.6 -6,-12.9c0,-5.5 2.2,-10 6.5,-13.6c4.4,-3.6 10,-5.3 16.8,-5.3c7.4,0 13.2,2 17.6,5.9c4.4,3.9 6.5,8.8 6.4,14.6l-0.1,0.3l-10.9,0c0,-3.6 -1.2,-6.4 -3.6,-8.6c-2.4,-2.1 -5.6,-3.2 -9.5,-3.2c-3.8,0 -6.8,0.9 -8.9,2.7c-2.1,1.8 -3.1,4.1 -3.1,7c0,2.6 1.1,4.8 3.4,6.5c2.3,1.7 6,3.3 11.3,4.8c7.1,2 12.6,4.7 16.3,8.2c3.7,3.4 5.6,7.8 5.6,13.2c0.2,5.9 -2,10.4 -6.4,13.8z" id="svg_8"/>
      <path class="st0" d="m352.9,6l0,0l-245.5,0c-7.3,0 -13.3,6 -13.3,13.3l0,256.8l26.6,0l0,-243.5l232.2,0l0,92.2l92.2,0l0,354.6l-324.4,0l0,-49.8l-26.6,0l0,63.1c0,7.3 6,13.3 13.3,13.3l351,0c7.3,0 13.3,-6 13.3,-13.3l0,-367.9l-118.8,-118.8z" id="svg_7"/>
      <rect class="st0" height="19.6" id="svg_6" width="253.4" x="156.2" y="171.4"/>
      <rect class="st0" height="19.6" id="svg_5" width="213.3" x="156.2" y="209.5"/>
     </g>
    </symbol>
   </defs>
   <g class="layer">
    <title>Layer 1</title>
    <use id="svg_2" transform="matrix(1.33119 0 0 1.01584 407.698 -57.7702)" x="-391.88834" xlink:href="#svg_3" y="55.095747"/>
    <g id="svg_1"/>
   </g>
  </symbol>
 </defs>
 <g class="layer">
  <title>Layer 1</title>
  <rect fill="#f47822" height="85.000002" id="svg_14" stroke="#f47822" stroke-width="5" width="145.000004" x="158.500001" y="291.5"/>
  <use id="svg_10" transform="matrix(1.00065 0 0 0.999729 52.5449 189.066)" x="-54.713198" xlink:href="#svg_9" y="-189.051248"/>
  <g id="svg_11"/>
  <text fill="#000000" font-family="Sans-serif" font-size="24" font-weight="bold" id="svg_12" stroke="#000000" stroke-width="0" text-anchor="middle" transform="matrix(5.01392 0 0 3.80187 -380.835 -800.214)" x="120.930283" xml:space="preserve" y="306.567436">JSON</text>
 </g>
</svg>